<svg xmlns="http://www.w3.org/2000/svg" width="48" height="48" viewBox="0 0 48 48" fill="none">
    <path fill-rule="evenodd" clip-rule="evenodd" d="M14.1962 32.5658C14.0337 32.715 14.0162 32.7548 14.0162 32.9736C14.0162 33.1427 13.997 33.216 13.9527 33.216C13.8663 33.216 13.6802 33.6007 13.6802 33.7794C13.6802 33.8591 13.6478 33.9511 13.6082 33.984C13.5686 34.0169 13.5362 34.1066 13.5362 34.1834C13.5362 34.2612 13.5054 34.3349 13.4665 34.3497C13.4274 34.3647 13.3823 34.4738 13.3635 34.5986C13.3452 34.7209 13.3009 34.8501 13.2653 34.8859C13.2295 34.9215 13.2002 35.0334 13.2002 35.1343C13.2002 35.2531 13.1748 35.3275 13.1282 35.3454C13.0806 35.3636 13.0562 35.439 13.0562 35.5685C13.0562 35.6977 13.0237 35.799 12.9602 35.867C12.9074 35.9237 12.8642 36.0324 12.8642 36.1085C12.8642 36.1845 12.8318 36.2792 12.7922 36.3188C12.7526 36.3584 12.7202 36.4302 12.7202 36.4783C12.7202 36.5264 12.6878 36.5781 12.6482 36.5934C12.5989 36.6122 12.5762 36.6894 12.5762 36.8384C12.5762 36.9917 12.5565 37.056 12.5099 37.056C12.4377 37.056 12.3859 37.1981 12.3848 37.3988C12.3845 37.4687 12.3518 37.5381 12.3122 37.5534C12.2633 37.5721 12.2402 37.6489 12.2402 37.7934C12.2402 37.9379 12.2172 38.0145 12.1682 38.0334C12.1189 38.0522 12.0962 38.1294 12.0962 38.2784C12.0962 38.4317 12.0765 38.496 12.0299 38.496C11.957 38.496 11.9059 38.6384 11.9048 38.844C11.9045 38.9166 11.8807 38.976 11.8519 38.976C11.7459 38.976 11.6193 39.1937 11.6178 39.3787C11.6168 39.4944 11.5865 39.5871 11.538 39.6227C11.4897 39.6578 11.4504 39.777 11.4354 39.9325C11.4185 40.1085 11.3765 40.2225 11.297 40.3083C11.2343 40.376 11.1697 40.5139 11.1536 40.6148C11.1374 40.7156 11.0946 40.8228 11.0582 40.8529C11.022 40.8831 10.9922 40.9665 10.9922 41.0385C10.9922 41.1104 10.949 41.2191 10.8962 41.28L10.8002 41.3906V41.0508C10.8002 40.8126 10.7786 40.6893 10.7282 40.6388C10.6886 40.5992 10.6562 40.4881 10.6562 40.392C10.6562 40.2374 10.6479 40.2254 10.5851 40.2883C10.4814 40.3919 10.3224 40.3301 10.2483 40.1574C10.2131 40.0752 10.1475 39.9216 10.1028 39.816C9.7069 38.8825 9.0541 37.8423 8.4211 37.136C8.33038 37.0349 8.25622 36.9444 8.25622 36.9348C8.25622 36.8499 7.1545 35.8567 6.65098 35.4877C6.46462 35.3513 6.27442 35.2055 6.22822 35.1637C6.18202 35.1221 6.13534 35.088 6.12442 35.088C6.1135 35.088 5.98978 35.0124 5.8495 34.92C5.4295 34.6434 5.37622 34.6704 5.37622 35.16C5.37622 35.4907 5.3899 35.568 5.44822 35.568C5.50486 35.568 5.52022 35.6348 5.52022 35.8815C5.52022 36.107 5.53918 36.2023 5.5879 36.221C5.62966 36.237 5.66806 36.3548 5.68822 36.528C5.70838 36.7011 5.74678 36.819 5.78854 36.8349C5.83078 36.8513 5.85622 36.9314 5.85622 37.0485C5.85622 37.1568 5.8867 37.2615 5.92822 37.296C5.97346 37.3335 6.00022 37.4393 6.00022 37.5807C6.00022 37.7045 6.0319 37.8475 6.07066 37.8989C6.10942 37.9501 6.14182 38.072 6.14266 38.1697C6.14434 38.3587 6.22894 38.592 6.2959 38.592C6.3181 38.592 6.33622 38.7432 6.33622 38.928C6.33622 39.1946 6.3511 39.264 6.40822 39.264C6.46426 39.264 6.48022 39.3282 6.48022 39.5535C6.48022 39.7575 6.50014 39.8507 6.54754 39.8688C6.59302 39.8863 6.62566 40.0169 6.64822 40.272C6.67078 40.5271 6.70342 40.6577 6.7489 40.6752C6.79258 40.6919 6.81622 40.7754 6.81622 40.9125C6.81622 41.0421 6.84418 41.1474 6.88822 41.184C6.92926 41.2181 6.96022 41.3227 6.96022 41.4275C6.96022 41.5315 6.98854 41.6279 7.0255 41.6496C7.06594 41.6733 7.10062 41.8147 7.1167 42.0211C7.13434 42.2479 7.1671 42.3722 7.21942 42.4104C7.27234 42.4491 7.29622 42.5423 7.29622 42.7099C7.29622 42.8486 7.3237 42.9806 7.3603 43.0172C7.39546 43.0524 7.43938 43.2097 7.45786 43.3668C7.47634 43.5239 7.51102 43.6644 7.53478 43.6791C7.60054 43.7197 7.68022 43.957 7.68022 44.1122C7.68022 44.1882 7.70182 44.2636 7.72822 44.28C7.75462 44.2963 7.77622 44.3624 7.77622 44.4268C7.77622 44.499 7.80394 44.544 7.84822 44.544C7.90534 44.544 7.92022 44.613 7.92022 44.8765C7.92022 45.0896 7.94326 45.232 7.98418 45.2731C8.01934 45.3082 8.06266 45.4755 8.0803 45.6448C8.09806 45.8142 8.14486 45.9884 8.18434 46.0321C8.22394 46.0758 8.25622 46.1454 8.25622 46.1866C8.25622 46.2279 8.28862 46.2741 8.32822 46.2894C8.37898 46.3088 8.40022 46.3881 8.40022 46.5584C8.40022 46.7228 8.4199 46.8 8.46166 46.8C8.4955 46.8 8.54758 46.8648 8.57758 46.944L8.63194 47.088H10.5576C12.225 47.088 12.4869 47.0784 12.5108 47.016C12.5279 46.9716 12.6008 46.944 12.7014 46.944H12.8642V46.704C12.8642 46.5308 12.8828 46.464 12.9311 46.464C13.0121 46.464 13.0562 46.3605 13.0562 46.1706C13.0562 46.089 13.0867 46.0172 13.1282 46.0014C13.1726 45.9843 13.2002 45.9114 13.2002 45.8108C13.2002 45.698 13.2224 45.648 13.2722 45.648C13.3249 45.648 13.3442 45.5932 13.3442 45.4435C13.3442 45.2911 13.3686 45.2238 13.4402 45.1791C13.493 45.1461 13.5362 45.0896 13.5362 45.0535C13.5362 45.0173 13.5686 44.9608 13.6082 44.928C13.6478 44.8951 13.6802 44.7975 13.6802 44.7112C13.6802 44.616 13.7085 44.5434 13.7522 44.5266C13.7918 44.5114 13.8242 44.4423 13.8242 44.3731C13.8242 44.3037 13.8674 44.1923 13.9202 44.1251C13.9829 44.0454 14.0162 43.9303 14.0162 43.7935C14.0162 43.6393 14.0352 43.584 14.0882 43.584C14.1426 43.584 14.1602 43.5253 14.1602 43.344C14.1602 43.1627 14.1779 43.104 14.2322 43.104C14.2789 43.104 14.3042 43.0572 14.3042 42.9706C14.3042 42.8967 14.3469 42.8007 14.4002 42.7551C14.453 42.7099 14.4962 42.6429 14.4962 42.6063C14.4962 42.5697 14.5286 42.5129 14.5682 42.48C14.6078 42.4471 14.6402 42.3581 14.6402 42.2821C14.6402 42.1914 14.6649 42.144 14.7122 42.144C14.7607 42.144 14.7842 42.0955 14.7842 41.9955C14.7842 41.9139 14.8274 41.7923 14.8802 41.7251C14.933 41.658 14.9762 41.5435 14.9762 41.4707C14.9762 41.3972 15.0083 41.3259 15.0482 41.3106C15.0878 41.2955 15.1202 41.2524 15.1202 41.2149C15.1202 41.1776 15.1525 41.0851 15.192 41.0095C15.2313 40.9339 15.2637 40.8353 15.264 40.7904C15.2641 40.7455 15.2934 40.6915 15.3289 40.6704C15.3645 40.6493 15.407 40.5468 15.4235 40.4427C15.4398 40.3387 15.4862 40.235 15.5267 40.2123C15.5671 40.1898 15.6002 40.1097 15.6002 40.0347C15.6002 39.9577 15.6315 39.8862 15.6722 39.8706C15.7171 39.8534 15.7442 39.7802 15.7442 39.6763C15.7442 39.5846 15.7645 39.4971 15.7892 39.4819C15.8664 39.4341 16.0802 38.9401 16.0802 38.8094C16.0802 38.741 16.1126 38.6725 16.1522 38.6574C16.1943 38.6412 16.2242 38.5693 16.2242 38.4841C16.2242 38.4041 16.2571 38.3145 16.2973 38.2851C16.3375 38.2557 16.3844 38.1456 16.4015 38.0402C16.4186 37.935 16.4612 37.82 16.4964 37.785C16.5315 37.7498 16.5602 37.6464 16.5602 37.5551C16.5602 37.4517 16.5875 37.3785 16.6322 37.3614C16.6784 37.3436 16.7042 37.2695 16.7042 37.1543C16.7042 37.0358 16.7369 36.9453 16.8002 36.888C16.853 36.8402 16.8962 36.7419 16.8962 36.6697C16.8962 36.5971 16.9285 36.5258 16.9682 36.5106C17.0078 36.4955 17.0402 36.4307 17.0402 36.3666C17.0402 36.3026 17.0726 36.2378 17.1122 36.2226C17.1588 36.2047 17.1842 36.1304 17.1842 36.0121C17.1842 35.8887 17.2154 35.8026 17.2802 35.7471C17.333 35.7019 17.3762 35.6199 17.3762 35.565C17.3762 35.51 17.4086 35.4327 17.4482 35.3931C17.4878 35.3535 17.5202 35.2363 17.5202 35.1325C17.5202 34.9969 17.5404 34.944 17.5922 34.944C17.6466 34.944 17.6642 34.8853 17.6642 34.704C17.6642 34.5308 17.6828 34.464 17.7311 34.464C17.8045 34.464 17.8562 34.3631 17.8562 34.22C17.8562 34.1694 17.8757 34.128 17.8995 34.128C17.9233 34.128 17.9654 34.0632 17.993 33.984C18.0206 33.9048 18.066 33.84 18.0937 33.84C18.1215 33.84 18.1442 33.7644 18.1442 33.672C18.1442 33.5679 18.1808 33.4674 18.2402 33.408C18.293 33.3552 18.3362 33.2495 18.3362 33.1731C18.3362 33.0939 18.3672 33.0224 18.4082 33.0066C18.5079 32.9683 18.5054 32.576 18.4047 32.4755C18.3386 32.4092 18.0859 32.4 16.3527 32.4002L14.3762 32.4005L14.1962 32.5658ZM19.5157 32.4755C19.4742 32.5169 19.4402 32.6226 19.4402 32.7103C19.4402 32.8077 19.4123 32.8805 19.3682 32.8974C19.3094 32.9199 19.2962 33.0381 19.2962 33.5449C19.2962 34.1244 19.29 34.1664 19.2002 34.1899C19.1115 34.2131 19.1042 34.2554 19.1042 34.7417C19.1042 35.1511 19.0883 35.2815 19.0322 35.328C18.9773 35.3736 18.9602 35.4983 18.9602 35.856C18.9602 36.2137 18.9432 36.3384 18.8882 36.384C18.8354 36.4278 18.8162 36.5441 18.8162 36.8195C18.8162 37.0676 18.7958 37.2083 18.7562 37.2336C18.584 37.3437 18.5018 37.6973 18.3513 38.976C18.3373 39.0948 18.305 39.2178 18.2793 39.2493C18.2538 39.2809 18.2204 39.5148 18.2053 39.7692C18.1859 40.0947 18.1555 40.2539 18.1029 40.3064C18.0458 40.3635 18.0235 40.521 18.0084 40.9735C17.9942 41.3989 17.9701 41.5813 17.9225 41.6208C17.8751 41.6601 17.8562 41.7993 17.8562 42.11C17.8562 42.4341 17.8374 42.5652 17.7822 42.6263C17.7281 42.686 17.7002 42.8651 17.6789 43.2902C17.6587 43.6896 17.6292 43.8892 17.5849 43.9261C17.5387 43.9644 17.5202 44.114 17.5202 44.4487C17.5202 44.8213 17.5055 44.9234 17.4482 44.9454C17.3924 44.9667 17.3762 45.0602 17.3762 45.3602C17.3762 45.6262 17.3533 45.7822 17.303 45.859C17.2628 45.9205 17.2164 46.1148 17.1999 46.2909C17.1835 46.467 17.1516 46.6225 17.1291 46.6363C17.0557 46.6818 17.0893 46.8211 17.2093 46.968L17.3269 47.112L18.9955 47.1274C21.047 47.1465 21.15 47.1372 21.1951 46.9288C21.2133 46.8448 21.2495 46.7624 21.2755 46.7458C21.3014 46.7294 21.3339 46.6106 21.3477 46.4818C21.3615 46.3532 21.3887 46.2264 21.408 46.2C21.4274 46.1736 21.4579 45.9691 21.4758 45.7455C21.4935 45.5221 21.5313 45.3249 21.5595 45.3074C21.6345 45.2611 21.6918 44.9098 21.6942 44.4805C21.6956 44.213 21.717 44.0844 21.7682 44.0331C21.8245 43.9768 21.8402 43.8308 21.8402 43.3645C21.8402 42.8663 21.8521 42.768 21.9122 42.768C21.9713 42.768 21.9842 42.6846 21.9842 42.3053C21.9842 41.9199 21.9983 41.8323 22.0682 41.7812C22.1361 41.7315 22.1553 41.6294 22.1687 41.2479C22.1778 40.9871 22.2102 40.7438 22.2413 40.704C22.424 40.4693 22.4642 40.3215 22.4642 39.8858C22.4642 39.5747 22.4833 39.4267 22.5283 39.3893C22.5936 39.335 22.7233 38.6773 22.7803 38.112C22.7976 37.9404 22.8362 37.7846 22.866 37.7658C22.8999 37.7444 22.9263 37.5117 22.9364 37.1441C22.9487 36.7027 22.9699 36.5438 23.0217 36.5059C23.0705 36.4703 23.0996 36.3069 23.1206 35.9516C23.1381 35.6538 23.1769 35.4093 23.2153 35.3533C23.2593 35.289 23.2802 35.1023 23.2802 34.7712C23.2802 34.3964 23.2969 34.2699 23.3522 34.224C23.4078 34.1779 23.4242 34.0503 23.4242 33.6661C23.4242 33.2622 23.4374 33.168 23.4941 33.168C23.6465 33.168 23.6425 32.6251 23.4889 32.4715C23.3783 32.3609 19.6265 32.3646 19.5157 32.4755ZM28.4869 32.4654C28.4348 32.5014 28.2896 32.5459 28.1642 32.5643C28.0134 32.5865 27.9362 32.6213 27.9362 32.667C27.9362 32.7153 27.8796 32.736 27.7471 32.736C27.6431 32.736 27.5462 32.7548 27.5321 32.7777C27.5179 32.8007 27.387 32.8799 27.2413 32.9535C27.0955 33.0273 26.9762 33.1165 26.9762 33.1518C26.9762 33.1913 26.9202 33.216 26.831 33.216C26.7081 33.216 26.6814 33.2381 26.657 33.36C26.6372 33.4589 26.5999 33.504 26.5377 33.504C26.4879 33.504 26.4103 33.5472 26.3651 33.6C26.3198 33.6528 26.2553 33.696 26.2215 33.696C26.1878 33.696 26.1602 33.7284 26.1602 33.768C26.1602 33.8076 26.1278 33.84 26.0882 33.84C26.0486 33.84 26.0162 33.8724 26.0162 33.912C26.0162 33.9516 25.9818 33.984 25.9398 33.984C25.8977 33.984 25.8519 34.0272 25.8381 34.08C25.8243 34.1328 25.7832 34.176 25.7466 34.176C25.7101 34.176 25.6802 34.206 25.6802 34.2428C25.6802 34.2795 25.629 34.3224 25.5663 34.3382C25.5001 34.3548 25.4273 34.4274 25.3925 34.5114C25.3596 34.5909 25.3028 34.656 25.2663 34.656C25.2287 34.656 25.2002 34.7052 25.2002 34.7701C25.2002 34.8329 25.1678 34.9111 25.1282 34.944C25.0886 34.9769 25.0562 35.0335 25.0562 35.0699C25.0562 35.1062 25.0266 35.136 24.9902 35.136C24.9539 35.136 24.911 35.202 24.8948 35.2827C24.8787 35.3635 24.8328 35.4623 24.7928 35.5022C24.7476 35.5476 24.7202 35.6643 24.7202 35.8129C24.7202 35.9803 24.6989 36.0593 24.6482 36.0786C24.5874 36.102 24.5762 36.2613 24.5762 37.104C24.5762 37.9466 24.5874 38.106 24.6482 38.1294C24.6955 38.1475 24.7202 38.2224 24.7202 38.3477C24.7202 38.4525 24.744 38.553 24.7731 38.571C24.8022 38.589 24.8565 38.6767 24.8937 38.7659C24.9311 38.855 24.9828 38.928 25.0088 38.928C25.0349 38.928 25.0562 38.9611 25.0562 39.0015C25.0562 39.0419 25.0886 39.0875 25.1282 39.1026C25.1678 39.1178 25.2002 39.1603 25.2002 39.1971C25.2002 39.2339 25.2279 39.264 25.2617 39.264C25.2955 39.264 25.3472 39.3278 25.3767 39.4058C25.4106 39.4955 25.4762 39.5592 25.5552 39.579C25.6239 39.5963 25.6802 39.6404 25.6802 39.6771C25.6802 39.714 25.7101 39.744 25.7466 39.744C25.7832 39.744 25.8243 39.7872 25.8381 39.84C25.8519 39.8928 25.8977 39.936 25.9398 39.936C25.9818 39.936 26.0162 39.9684 26.0162 40.008C26.0162 40.0476 26.0486 40.08 26.0882 40.08C26.1278 40.08 26.1602 40.1004 26.1602 40.1253C26.1602 40.1503 26.2196 40.199 26.2922 40.2336C26.3648 40.2681 26.4453 40.3446 26.4713 40.4034C26.4971 40.4622 26.5727 40.5319 26.6393 40.5584C26.8008 40.6227 26.9441 40.7154 26.9885 40.7843C27.0085 40.8152 27.0877 40.8543 27.1645 40.8711C27.2413 40.8881 27.3162 40.9329 27.3307 40.9709C27.3453 41.0089 27.4095 41.04 27.4736 41.04C27.5376 41.04 27.6024 41.0724 27.6176 41.112C27.6337 41.1541 27.7057 41.184 27.7907 41.184C27.8844 41.184 27.9362 41.2082 27.9362 41.2521C27.9362 41.2898 28.0049 41.3354 28.0895 41.354C28.1738 41.3725 28.2726 41.4175 28.3089 41.4539C28.3453 41.4902 28.4144 41.52 28.4625 41.52C28.5107 41.52 28.5624 41.5524 28.5776 41.592C28.5937 41.6341 28.6657 41.664 28.7507 41.664C28.8347 41.664 28.8966 41.6893 28.8971 41.724C28.898 41.7972 29.1053 42 29.1789 42C29.2082 42 29.2322 42.0324 29.2322 42.072C29.2322 42.1116 29.2646 42.144 29.3042 42.144C29.3438 42.144 29.3762 42.1764 29.3762 42.216C29.3762 42.2556 29.4086 42.288 29.4482 42.288C29.5693 42.288 29.5665 43.0392 29.4451 43.1333C29.4072 43.1625 29.3762 43.2111 29.3762 43.2413C29.3762 43.2714 29.3438 43.296 29.3042 43.296C29.2646 43.296 29.2322 43.3173 29.2322 43.3434C29.2322 43.3694 29.1566 43.4222 29.0642 43.4609C28.9345 43.5151 28.8962 43.5589 28.8962 43.6536C28.8962 43.7723 28.8867 43.776 28.5827 43.776C28.3483 43.776 28.2623 43.7941 28.2416 43.848C28.2187 43.9075 28.0909 43.92 27.5049 43.92C26.9333 43.92 26.7843 43.906 26.7362 43.848C26.6913 43.7938 26.5706 43.776 26.2503 43.776C25.9254 43.776 25.8242 43.7606 25.8242 43.7114C25.8242 43.5962 25.6543 43.4892 25.4204 43.4571C25.2947 43.4399 25.1805 43.3965 25.1669 43.3609C25.1532 43.3251 25.1023 43.296 25.0539 43.296C25.0055 43.296 24.9539 43.2765 24.9392 43.2528C24.9246 43.229 24.8055 43.1839 24.6747 43.1526C24.5439 43.1213 24.4117 43.0651 24.3807 43.0278C24.3498 42.9905 24.2973 42.96 24.2642 42.96C24.2311 42.96 24.1771 42.9276 24.1442 42.888C23.9479 42.6515 23.6162 42.8384 23.6162 43.1856C23.6162 43.3701 23.598 43.44 23.5499 43.44C23.4584 43.44 23.4257 43.5926 23.4248 44.0221C23.4243 44.2884 23.4045 44.4045 23.3522 44.448C23.2977 44.4932 23.2802 44.6157 23.2802 44.9527C23.2802 45.3039 23.2651 45.4035 23.2082 45.4254C23.1577 45.4447 23.1362 45.5234 23.1362 45.6885C23.1362 45.8395 23.1103 45.9457 23.0642 45.984C23.0246 46.0168 22.9922 46.1174 22.9922 46.2074C22.9922 46.3086 23.0197 46.3815 23.0642 46.3986C23.1038 46.4138 23.1362 46.4646 23.1362 46.5115C23.1362 46.6101 23.2656 46.6544 23.5562 46.6554C23.7053 46.6558 23.7602 46.6754 23.7602 46.728C23.7602 46.7845 23.8263 46.8 24.0671 46.8C24.2955 46.8 24.381 46.8183 24.4016 46.872C24.4207 46.9218 24.4983 46.944 24.6534 46.944C24.8115 46.944 24.8958 46.9687 24.9391 47.028C24.9961 47.106 25.1648 47.112 27.2877 47.112C29.4162 47.112 29.5782 47.1061 29.622 47.028C29.654 46.9707 29.7277 46.944 29.8527 46.944C29.9575 46.944 30.0621 46.913 30.0962 46.872C30.1344 46.826 30.2406 46.8 30.3901 46.8C30.5663 46.8 30.6242 46.7821 30.6242 46.728C30.6242 46.6815 30.6711 46.6557 30.7562 46.6554C30.9618 46.6543 31.1042 46.6032 31.1042 46.5303C31.1042 46.4892 31.1569 46.464 31.2431 46.464C31.3223 46.464 31.3938 46.433 31.4096 46.392C31.4247 46.3524 31.4703 46.32 31.5107 46.32C31.5511 46.32 31.5842 46.2876 31.5842 46.248C31.5842 46.2084 31.6187 46.176 31.6607 46.176C31.7028 46.176 31.7485 46.1328 31.7623 46.08C31.7801 46.0119 31.8278 45.984 31.9259 45.984C32.0168 45.984 32.0642 45.9594 32.0642 45.912C32.0642 45.8724 32.0912 45.8396 32.1242 45.8391C32.1974 45.8382 32.4002 45.6309 32.4002 45.5572C32.4002 45.528 32.4326 45.504 32.4722 45.504C32.5118 45.504 32.5442 45.4716 32.5442 45.432C32.5442 45.3924 32.5773 45.36 32.6178 45.36C32.7133 45.36 33.0242 45.049 33.0242 44.9535C33.0242 44.9131 33.0515 44.88 33.0848 44.88C33.1443 44.88 33.1685 44.8462 33.3113 44.5642C33.3503 44.4871 33.4097 44.4067 33.4433 44.3856C33.4767 44.3644 33.5042 44.3077 33.5042 44.2595C33.5042 44.2112 33.5355 44.1457 33.5738 44.1139C33.6122 44.0821 33.6586 43.956 33.6769 43.8336C33.6953 43.7112 33.7395 43.5818 33.7752 43.5461C33.8203 43.5011 33.8402 43.3484 33.8402 43.0491C33.8402 42.7291 33.8589 42.5984 33.9122 42.5451C33.9582 42.4992 33.9842 42.3809 33.9842 42.2184C33.9842 42.0506 33.9596 41.9433 33.9122 41.904C33.8594 41.8601 33.8402 41.7437 33.8402 41.466C33.8402 41.1793 33.8169 41.0442 33.7442 40.9085C33.6914 40.8101 33.6482 40.7015 33.6482 40.6671C33.6482 40.6329 33.6158 40.5925 33.5762 40.5774C33.5366 40.5621 33.5042 40.4973 33.5042 40.4334C33.5042 40.3693 33.4718 40.3045 33.4322 40.2894C33.3926 40.2741 33.3602 40.2434 33.3602 40.221C33.3602 40.0757 32.6075 39.264 32.4728 39.264C32.4329 39.264 32.4002 39.2316 32.4002 39.192C32.4002 39.1524 32.3701 39.12 32.3334 39.12C32.2965 39.12 32.2541 39.0876 32.2388 39.048C32.2237 39.0084 32.1781 38.976 32.1378 38.976C32.0973 38.976 32.0642 38.9483 32.0642 38.9145C32.0642 38.8807 32.0048 38.8259 31.9322 38.7926C31.6639 38.6699 31.5842 38.6157 31.5842 38.5566C31.5842 38.5224 31.5265 38.496 31.4517 38.496C31.3713 38.496 31.2957 38.4583 31.2594 38.4C31.2264 38.3472 31.1479 38.304 31.0849 38.304C31.022 38.304 30.9581 38.2716 30.9428 38.232C30.9267 38.1899 30.8547 38.16 30.7698 38.16C30.6723 38.16 30.6242 38.1361 30.6242 38.088C30.6242 38.0377 30.5736 38.016 30.4562 38.016C30.3431 38.016 30.2882 37.9938 30.2882 37.9478C30.2882 37.9103 30.2252 37.8657 30.1482 37.8488C30.0713 37.8319 29.9963 37.787 29.9817 37.7491C29.9671 37.7111 29.9245 37.68 29.8868 37.68C29.8493 37.68 29.8061 37.6476 29.7908 37.608C29.7757 37.5684 29.7085 37.536 29.6418 37.536C29.5699 37.536 29.5202 37.5086 29.5202 37.4691C29.5202 37.3957 29.4193 37.344 29.2763 37.344C29.2256 37.344 29.1842 37.3116 29.1842 37.272C29.1842 37.2324 29.1518 37.2 29.1122 37.2C29.0726 37.2 29.0402 37.1676 29.0402 37.128C29.0402 37.0884 29.0078 37.056 28.9682 37.056C28.9099 37.056 28.8962 36.9787 28.8962 36.648C28.8962 36.3173 28.9099 36.24 28.9682 36.24C29.0078 36.24 29.0402 36.2099 29.0402 36.1731C29.0402 36.1363 29.0726 36.0938 29.1122 36.0786C29.1518 36.0635 29.1842 36.0179 29.1842 35.9775C29.1842 35.9255 29.2333 35.904 29.3522 35.904C29.4696 35.904 29.5202 35.8823 29.5202 35.832C29.5202 35.7755 29.5865 35.76 29.8287 35.76C30.0391 35.76 30.1603 35.7371 30.2094 35.688C30.3108 35.5866 31.2309 35.5878 31.3653 35.6895C31.4297 35.7381 31.5804 35.76 31.8515 35.76C32.1422 35.76 32.2601 35.7787 32.3042 35.832C32.3435 35.8793 32.4506 35.904 32.6165 35.904C32.8286 35.904 32.873 35.9193 32.8941 36C32.9079 36.0528 32.9514 36.096 32.9906 36.096C33.0299 36.096 33.0744 36.1284 33.0896 36.168C33.1047 36.2076 33.1725 36.24 33.2402 36.24C33.3079 36.24 33.3757 36.2724 33.3908 36.312C33.425 36.401 33.8408 36.4122 33.9266 36.3264C33.9626 36.2904 33.9842 36.1121 33.9842 35.8515C33.9842 35.5353 34.0008 35.4279 34.0524 35.4081C34.095 35.3917 34.132 35.2773 34.1508 35.103C34.1674 34.9495 34.2057 34.7808 34.2361 34.728C34.2666 34.6752 34.3004 34.416 34.3113 34.152C34.3256 33.8105 34.3505 33.6609 34.3977 33.6336C34.6158 33.5077 34.4076 32.736 34.1556 32.736C34.1207 32.736 34.0658 32.7044 34.0338 32.6659C34.0017 32.6273 33.8483 32.5814 33.6927 32.5638C33.5371 32.5461 33.3852 32.5021 33.3552 32.4659C33.2745 32.3687 28.6275 32.3682 28.4869 32.4654ZM39.9671 32.472C39.9275 32.5116 39.8449 32.5442 39.7837 32.5446C39.5972 32.5458 39.4562 32.5995 39.4562 32.6696C39.4562 32.7086 39.4062 32.736 39.3347 32.736C39.268 32.736 39.2008 32.7684 39.1856 32.808C39.1704 32.8476 39.1259 32.88 39.0866 32.88C39.0474 32.88 39.0039 32.9232 38.9902 32.976C38.9763 33.0288 38.9369 33.072 38.9024 33.072C38.868 33.072 38.8256 33.1368 38.8082 33.216C38.7908 33.2952 38.746 33.36 38.7084 33.36C38.6624 33.36 38.6402 33.4148 38.6402 33.528C38.6402 33.6453 38.6185 33.696 38.5682 33.696C38.518 33.696 38.4962 33.7466 38.4962 33.864C38.4962 33.975 38.4737 34.032 38.4299 34.032C38.361 34.032 38.306 34.1724 38.3048 34.3508C38.3045 34.4075 38.2718 34.4661 38.2322 34.4814C38.191 34.4972 38.1602 34.5689 38.1602 34.6494C38.1602 34.7298 38.1295 34.8015 38.0882 34.8174C38.043 34.8347 38.0162 34.9081 38.0162 35.0144C38.0162 35.1077 37.9942 35.184 37.9672 35.184C37.9403 35.184 37.8919 35.2434 37.8598 35.316C37.8276 35.3886 37.7741 35.4765 37.7408 35.5115C37.7075 35.5463 37.6802 35.6597 37.6802 35.7635C37.6802 35.8991 37.6601 35.952 37.6082 35.952C37.557 35.952 37.5362 36.0042 37.5362 36.1333C37.5362 36.2552 37.5048 36.3416 37.4402 36.3968C37.3747 36.453 37.3442 36.5384 37.3442 36.6663C37.3442 36.7886 37.3193 36.8633 37.2722 36.8814C37.2299 36.8976 37.2002 36.9696 37.2002 37.056C37.2002 37.1424 37.1706 37.2144 37.1282 37.2306C37.0886 37.2458 37.0562 37.3099 37.0562 37.3731C37.0562 37.4363 37.013 37.5312 36.9602 37.584C36.9074 37.6368 36.8642 37.7232 36.8642 37.776C36.8642 37.8293 36.8322 37.872 36.7922 37.872C36.7441 37.872 36.7202 37.9201 36.7202 38.0175C36.7202 38.1025 36.6903 38.1745 36.6482 38.1906C36.5994 38.2094 36.5762 38.286 36.5762 38.4291C36.5762 38.5845 36.5573 38.64 36.5042 38.64C36.4646 38.64 36.4322 38.6708 36.4322 38.7085C36.4322 38.7463 36.3983 38.8111 36.3568 38.8526C36.3152 38.8941 36.2888 38.9659 36.2982 39.0121C36.3074 39.0582 36.2658 39.1497 36.2057 39.2155C36.1337 39.2941 36.0962 39.3948 36.0962 39.5096C36.0962 39.6056 36.0653 39.71 36.0274 39.7415C35.9894 39.7729 35.9449 39.8601 35.9283 39.9353C35.9119 40.0105 35.8673 40.0839 35.8293 40.0985C35.7833 40.1161 35.7602 40.1975 35.7602 40.3424C35.7602 40.5038 35.7416 40.56 35.6882 40.56C35.6379 40.56 35.6162 40.6106 35.6162 40.728C35.6162 40.8429 35.5941 40.896 35.5464 40.896C35.5049 40.896 35.4641 40.9627 35.4457 41.0606C35.4287 41.1512 35.3845 41.2369 35.3475 41.2512C35.3079 41.2663 35.2802 41.3445 35.2802 41.4405C35.2802 41.5305 35.2478 41.6311 35.2082 41.664C35.1686 41.6969 35.1362 41.7781 35.1362 41.8446C35.1362 41.9111 35.1033 41.9894 35.0632 42.0188C35.0229 42.0482 34.9765 42.1586 34.9598 42.2641C34.9433 42.3697 34.9005 42.4733 34.8649 42.4944C34.8294 42.5155 34.8002 42.5981 34.8002 42.6777C34.8002 42.7575 34.7678 42.8552 34.7282 42.8948C34.6886 42.9344 34.6562 43.0408 34.6562 43.1314C34.6562 43.2434 34.6339 43.296 34.5864 43.296C34.5449 43.296 34.5041 43.3627 34.4857 43.4606C34.4687 43.5512 34.4245 43.6369 34.3875 43.6512C34.3457 43.6673 34.3202 43.748 34.3202 43.8654C34.3202 43.9885 34.2953 44.0632 34.2482 44.0814C34.2061 44.0974 34.1762 44.1694 34.1762 44.2544C34.1762 44.3463 34.1518 44.4 34.1099 44.4C34.037 44.4 33.9859 44.5424 33.9848 44.748C33.9845 44.833 33.9587 44.88 33.9122 44.88C33.8579 44.88 33.8402 44.9386 33.8402 45.12C33.8402 45.3013 33.8226 45.36 33.7682 45.36C33.7179 45.36 33.6962 45.4106 33.6962 45.528C33.6962 45.6396 33.6738 45.696 33.6294 45.696C33.5569 45.696 33.5042 45.7965 33.5042 45.9348C33.5042 45.9825 33.4718 46.0341 33.4322 46.0494C33.3926 46.0645 33.3602 46.1215 33.3602 46.176C33.3602 46.2304 33.3278 46.2874 33.2882 46.3026C33.2359 46.3227 33.2162 46.4049 33.2162 46.6035C33.2162 46.7538 33.1937 46.8993 33.1662 46.9268C33.1315 46.9615 33.1411 46.9975 33.1976 47.0444C33.3353 47.1588 37.1851 47.1432 37.2694 47.028C37.3032 46.9818 37.3639 46.944 37.4044 46.944C37.4917 46.944 37.5362 46.8448 37.5362 46.6506C37.5362 46.569 37.5667 46.4972 37.6082 46.4814C37.6478 46.4661 37.6802 46.4047 37.6802 46.3447C37.6802 46.2848 37.7126 46.2088 37.7522 46.176C37.7928 46.1422 37.8242 46.0376 37.8242 45.936C37.8242 45.8338 37.8557 45.7297 37.8967 45.6956C37.9366 45.6626 37.9824 45.5523 37.9986 45.4507C38.0149 45.3489 38.0579 45.2412 38.0942 45.211C38.1305 45.1808 38.1602 45.121 38.1602 45.0781C38.1602 45.0069 38.3461 45.0012 40.2482 45.0129L42.3362 45.026V45.2078C42.3362 45.3078 42.3679 45.4315 42.4067 45.4828C42.4454 45.5341 42.4778 45.6219 42.4787 45.6781C42.4795 45.7342 42.5105 45.8053 42.5476 45.836C42.5932 45.8739 42.6203 46.0269 42.6315 46.31C42.645 46.648 42.6666 46.7473 42.7442 46.8283C42.797 46.8834 42.8641 46.9696 42.8934 47.0202C42.947 47.1127 46.026 47.1961 46.3532 47.114C46.4952 47.0784 46.5334 45.552 46.3922 45.552C46.338 45.552 46.3202 45.4939 46.3202 45.3171C46.3202 45.1526 46.2986 45.074 46.2482 45.0546C46.192 45.0331 46.1762 44.9372 46.1762 44.617C46.1762 44.2664 46.1623 44.1951 46.0802 44.1248C45.9977 44.0541 45.9842 43.9832 45.9842 43.6198C45.9842 43.2882 45.9688 43.191 45.9122 43.1694C45.8568 43.148 45.8402 43.056 45.8402 42.7687C45.8402 42.5126 45.8197 42.3787 45.7748 42.3415C45.739 42.3116 45.6961 42.174 45.6797 42.0356C45.6632 41.8961 45.6175 41.7602 45.5771 41.7307C45.5256 41.693 45.5042 41.5907 45.5042 41.3811C45.5042 41.1621 45.4855 41.0778 45.4322 41.0574C45.3772 41.0363 45.3602 40.9458 45.3602 40.6734C45.3602 40.4009 45.3433 40.3105 45.2882 40.2894C45.234 40.2685 45.2162 40.1814 45.2162 39.9368C45.2162 39.5225 45.1738 39.312 45.0902 39.312C45.0395 39.312 45.0242 39.2196 45.0242 38.9131C45.0242 38.6367 45.0026 38.4857 44.9538 38.4211C44.909 38.3619 44.8828 38.2137 44.8818 38.0147C44.8808 37.8216 44.8536 37.6634 44.811 37.6025C44.7728 37.548 44.7266 37.3382 44.7084 37.1361C44.689 36.9216 44.6479 36.7463 44.6096 36.7145C44.5736 36.6847 44.5442 36.5743 44.5442 36.4693C44.5442 36.3644 44.5135 36.2105 44.476 36.1272C44.4384 36.044 44.3992 35.8393 44.3886 35.6721C44.3782 35.5051 44.3464 35.3539 44.318 35.3361C44.2896 35.3185 44.2506 35.1349 44.2313 34.9281C44.2081 34.6796 44.1739 34.5438 44.1302 34.527C44.0858 34.5099 44.0642 34.4191 44.0642 34.2488C44.0642 33.8887 44.0203 33.7143 43.8956 33.5798C43.805 33.4821 43.7837 33.3965 43.7689 33.0709C43.7561 32.789 43.7303 32.6639 43.6768 32.6237C43.6358 32.5931 43.5881 32.5302 43.5708 32.484C43.526 32.365 40.0856 32.3534 39.9671 32.472ZM40.971 38.0957C41.0232 38.1157 41.0402 38.2149 41.0402 38.4987C41.0402 38.7654 41.0593 38.8865 41.1055 38.9136C41.1493 38.9394 41.1793 39.093 41.1967 39.3811C41.2159 39.6968 41.243 39.8252 41.2996 39.8665C41.3486 39.9024 41.3762 39.9947 41.3762 40.1228C41.3762 40.2565 41.4001 40.3322 41.4482 40.3506C41.5024 40.3713 41.5202 40.4582 41.5202 40.6999C41.5202 40.9085 41.5451 41.0544 41.5907 41.1149C41.6294 41.1661 41.6618 41.2782 41.6627 41.364L41.6642 41.52H40.5106C39.3848 41.52 39.3581 41.5177 39.4066 41.4271C39.4339 41.3761 39.4562 41.2704 39.4562 41.1923C39.4562 41.1103 39.4867 41.0385 39.5282 41.0226C39.5694 41.0069 39.6002 40.9352 39.6002 40.8554C39.6002 40.7786 39.6326 40.6889 39.6722 40.656C39.7118 40.6231 39.7442 40.5449 39.7442 40.4821C39.7442 40.4161 39.7727 40.368 39.8117 40.368C39.8562 40.368 39.8903 40.2873 39.9118 40.1316C39.9302 39.9967 39.9734 39.884 40.0122 39.8691C40.0553 39.8526 40.0802 39.7723 40.0802 39.6506C40.0802 39.5441 40.1223 39.3891 40.1747 39.3031C40.232 39.2085 40.2582 39.1049 40.2414 39.0379C40.2229 38.964 40.2352 38.9276 40.2791 38.927C40.3475 38.9259 40.5602 38.5079 40.5602 38.3745C40.5602 38.3319 40.5926 38.2647 40.6322 38.2251C40.6718 38.1855 40.7042 38.0814 40.7042 37.9937C40.7042 37.8962 40.7322 37.8235 40.7762 37.8066C40.8158 37.7915 40.8521 37.7405 40.8569 37.6935C40.8617 37.6465 40.8737 37.7118 40.8836 37.8385C40.8949 37.9819 40.9279 38.0791 40.971 38.0957Z" fill="#04549C"/>
    <path fill-rule="evenodd" clip-rule="evenodd" d="M12.8281 1.39255C12.7687 1.41691 12.7201 1.45915 12.7201 1.48639C12.7201 1.51567 12.5841 1.53595 12.3876 1.53595C12.1559 1.53595 12.0331 1.55779 11.9829 1.60795C11.9366 1.65439 11.8179 1.67995 11.6495 1.67995C11.4755 1.67995 11.3678 1.70407 11.3281 1.75195C11.2902 1.79767 11.1842 1.82395 11.0382 1.82395C10.7629 1.82395 10.6561 1.85899 10.6561 1.94911C10.6561 1.99639 10.5925 2.01595 10.4385 2.01595C10.2895 2.01595 10.2123 2.03863 10.1935 2.08795C10.1765 2.13235 10.1035 2.15995 10.0029 2.15995C9.89015 2.15995 9.84011 2.18215 9.84011 2.23195C9.84011 2.28547 9.78359 2.30395 9.61967 2.30395C9.43955 2.30395 9.39455 2.32147 9.37403 2.39995C9.35519 2.47207 9.30851 2.49595 9.18647 2.49595C9.07415 2.49595 9.02411 2.51815 9.02411 2.56795C9.02411 2.61595 8.97611 2.63995 8.88011 2.63995C8.78411 2.63995 8.73611 2.66395 8.73611 2.71195C8.73611 2.75839 8.68919 2.78419 8.6041 2.78455C8.39855 2.78563 8.25611 2.83675 8.25611 2.90959C8.25611 2.94607 8.21555 2.97595 8.16599 2.97595C8.11643 2.97595 8.04899 3.00835 8.01611 3.04795C7.98323 3.08755 7.91579 3.11995 7.86623 3.11995C7.81667 3.11995 7.77611 3.15235 7.77611 3.19195C7.77611 3.24043 7.72763 3.26395 7.62767 3.26395C7.51955 3.26395 7.47227 3.28999 7.45403 3.35995C7.43651 3.42691 7.38851 3.45595 7.29563 3.45595C7.22147 3.45595 7.15019 3.48787 7.13471 3.52795C7.11959 3.56755 7.07399 3.59995 7.03367 3.59995C6.99323 3.59995 6.96011 3.63235 6.96011 3.67195C6.96011 3.71203 6.91739 3.74395 6.86363 3.74395C6.81059 3.74395 6.73019 3.78715 6.68495 3.83995C6.63971 3.89275 6.57515 3.93595 6.54143 3.93595C6.50771 3.93595 6.48011 3.96835 6.48011 4.00795C6.48011 4.04755 6.43763 4.07995 6.38567 4.07995C6.33383 4.07995 6.21575 4.15555 6.12335 4.24795C6.03095 4.34035 5.93375 4.41595 5.90735 4.41595C5.81675 4.41595 5.52011 4.71391 5.52011 4.80487C5.52011 4.85503 5.48771 4.89595 5.44811 4.89595C5.40851 4.89595 5.37611 4.92835 5.37611 4.96795C5.37611 5.00792 5.33339 5.03995 5.28011 5.03995C5.22683 5.03995 5.18411 5.07199 5.18411 5.11195C5.18411 5.15155 5.15171 5.18395 5.11211 5.18395C5.07215 5.18395 5.04011 5.22668 5.04011 5.27996C5.04011 5.33324 5.00807 5.37596 4.96811 5.37596C4.92851 5.37596 4.89611 5.40836 4.89611 5.44796C4.89611 5.48792 4.85339 5.51996 4.80011 5.51996C4.74683 5.51996 4.70411 5.55199 4.70411 5.59196C4.70411 5.63156 4.67171 5.66396 4.63211 5.66396C4.59215 5.66396 4.56011 5.70668 4.56011 5.75996C4.56011 5.81324 4.52807 5.85596 4.48811 5.85596C4.44851 5.85596 4.41611 5.88836 4.41611 5.92796C4.41611 5.96792 4.37339 5.99996 4.32011 5.99996C4.26683 5.99996 4.22411 6.032 4.22411 6.07196C4.22411 6.11156 4.19171 6.14396 4.15211 6.14396C4.11215 6.14396 4.08011 6.18668 4.08011 6.23996C4.08011 6.29324 4.04807 6.33596 4.00811 6.33596C3.96851 6.33596 3.93611 6.36836 3.93611 6.40796C3.93611 6.44756 3.91163 6.47996 3.88163 6.47996C3.81755 6.47996 3.60011 6.70436 3.60011 6.77048C3.60011 6.79544 3.56771 6.81596 3.52811 6.81596C3.48851 6.81596 3.45575 6.84296 3.45527 6.87596C3.45479 6.90896 3.39755 6.98996 3.32795 7.05596C3.25835 7.12196 3.17195 7.24616 3.13607 7.33196C3.10019 7.41776 3.04955 7.48796 3.02351 7.48796C2.99747 7.48796 2.97611 7.52036 2.97611 7.55996C2.97611 7.59956 2.95835 7.63196 2.93663 7.63196C2.86691 7.63196 2.64011 8.02064 2.64011 8.14028C2.64011 8.21108 2.61215 8.25596 2.56811 8.25596C2.52011 8.25596 2.49611 8.30396 2.49611 8.39996C2.49611 8.4914 2.47163 8.54396 2.42891 8.54396C2.33879 8.54396 2.16011 8.8958 2.16011 9.0734C2.16011 9.16808 2.13599 9.21596 2.08811 9.21596C2.04851 9.21596 2.0161 9.24932 2.0161 9.29C2.0161 9.33068 1.97291 9.41036 1.92011 9.467C1.86731 9.52364 1.82411 9.6308 1.82411 9.70496C1.82411 9.79292 1.79903 9.83996 1.75211 9.83996C1.70399 9.83996 1.6801 9.88808 1.6801 9.98552C1.6801 10.0705 1.65022 10.1425 1.6081 10.1586C1.56706 10.1744 1.53611 10.2459 1.53611 10.3251C1.53611 10.4014 1.4929 10.5072 1.4401 10.56C1.38178 10.6183 1.3441 10.7199 1.3441 10.8188C1.3441 10.9197 1.3165 10.9923 1.27162 11.0095C1.23178 11.0247 1.20202 11.0541 1.20538 11.0746C1.23406 11.25 1.19098 11.472 1.1281 11.472C1.07146 11.472 1.0561 11.5387 1.0561 11.784C1.0561 12.0176 1.03942 12.096 0.989745 12.096C0.909825 12.096 0.865665 12.2422 0.864705 12.5101C0.864345 12.619 0.834945 12.7323 0.799425 12.762C0.758025 12.7963 0.731025 12.941 0.724545 13.1632C0.718065 13.3858 0.689505 13.5381 0.645225 13.5871C0.540945 13.7024 0.542145 18.0808 0.646545 18.2188C0.691665 18.2784 0.717585 18.4268 0.718545 18.6301C0.719625 18.8406 0.742545 18.9668 0.786465 19.0033C0.824265 19.0346 0.861825 19.1842 0.873945 19.3515C0.888465 19.552 0.920625 19.6635 0.975585 19.7037C1.0345 19.7468 1.0561 19.8355 1.0561 20.0348C1.0561 20.2324 1.07578 20.3145 1.1281 20.3346C1.17274 20.3517 1.2001 20.4248 1.2001 20.5266C1.2001 20.6284 1.22746 20.7015 1.2721 20.7186C1.31902 20.7366 1.3441 20.8112 1.3441 20.9326C1.3441 21.0672 1.37086 21.1359 1.4401 21.1791C1.51103 21.2234 1.53611 21.2911 1.53611 21.4383C1.53611 21.5713 1.5601 21.6469 1.6081 21.6654C1.65022 21.6814 1.6801 21.7534 1.6801 21.8384C1.6801 21.9358 1.70399 21.984 1.75211 21.984C1.80011 21.984 1.82411 22.032 1.82411 22.128C1.82411 22.208 1.86682 22.3147 1.92011 22.368C1.97291 22.4208 2.0161 22.5045 2.0161 22.5541C2.0161 22.6036 2.04851 22.6711 2.08811 22.704C2.12771 22.7368 2.16011 22.8117 2.16011 22.8705C2.16011 22.9292 2.20331 23.0271 2.25611 23.088C2.30891 23.1488 2.35211 23.217 2.35211 23.2393C2.35211 23.2617 2.38451 23.28 2.42411 23.28C2.46911 23.28 2.49611 23.3254 2.49611 23.4015C2.49611 23.4682 2.52851 23.5354 2.56811 23.5506C2.60771 23.5658 2.64011 23.6355 2.64011 23.7055C2.64011 23.7895 2.69711 23.885 2.80811 23.9868C2.90051 24.0716 2.97611 24.1633 2.97611 24.1905C2.97611 24.2176 3.00851 24.24 3.04811 24.24C3.09311 24.24 3.12011 24.2854 3.12011 24.3615C3.12011 24.4282 3.15167 24.4951 3.19031 24.51C3.22883 24.5247 3.27359 24.578 3.28955 24.6284C3.30551 24.6788 3.34955 24.72 3.38735 24.72C3.42515 24.72 3.45611 24.7531 3.45611 24.7935C3.45611 24.8341 3.52883 24.945 3.61775 25.04C3.87911 25.3195 3.93611 25.3897 3.93611 25.4319C3.93611 25.4973 4.28267 25.824 4.35215 25.824C4.38731 25.824 4.41611 25.8688 4.41611 25.9237C4.41611 26.0526 4.66751 26.304 4.79639 26.304C4.85399 26.304 4.89611 26.335 4.89611 26.3775C4.89611 26.4178 4.92851 26.4634 4.96811 26.4786C5.00771 26.4938 5.04011 26.5363 5.04011 26.5731C5.04011 26.6098 5.07023 26.64 5.10695 26.64C5.14379 26.64 5.18627 26.6724 5.20151 26.712C5.21663 26.7516 5.26223 26.784 5.30255 26.784C5.34299 26.784 5.37611 26.8171 5.37611 26.8575C5.37611 26.8978 5.40851 26.9434 5.44811 26.9586C5.48771 26.9738 5.52011 27.0163 5.52011 27.0531C5.52011 27.0898 5.55323 27.12 5.59367 27.12C5.63399 27.12 5.67959 27.1524 5.69471 27.192C5.71055 27.233 5.78207 27.264 5.86127 27.264C5.93987 27.264 6.00047 27.29 6.00095 27.324C6.00191 27.3972 6.20915 27.6 6.28283 27.6C6.31211 27.6 6.33611 27.6324 6.33611 27.672C6.33611 27.7194 6.38351 27.744 6.47447 27.744C6.57251 27.744 6.62027 27.7719 6.63803 27.84C6.65183 27.8928 6.69527 27.936 6.73451 27.936C6.77375 27.936 6.81827 27.9684 6.83351 28.008C6.84863 28.0476 6.91583 28.08 6.98255 28.08C7.05863 28.08 7.10411 28.107 7.10411 28.152C7.10411 28.1916 7.14479 28.224 7.19447 28.224C7.24451 28.224 7.29611 28.2668 7.31003 28.32C7.32707 28.3852 7.37555 28.416 7.46111 28.416C7.53047 28.416 7.59959 28.4484 7.61471 28.488C7.63055 28.529 7.70207 28.56 7.78127 28.56C7.87271 28.56 7.92011 28.5846 7.92011 28.632C7.92011 28.6822 7.97075 28.704 8.08811 28.704C8.22407 28.704 8.25611 28.7222 8.25611 28.8C8.25611 28.8739 8.28815 28.896 8.39495 28.896C8.47415 28.896 8.54567 28.9269 8.56151 28.968C8.57663 29.0076 8.64323 29.04 8.70935 29.04C8.79443 29.04 8.85143 29.0821 8.90411 29.184C8.95487 29.282 9.01463 29.328 9.09143 29.328C9.15359 29.328 9.23135 29.3606 9.26447 29.4004C9.29747 29.4403 9.40775 29.4861 9.50939 29.5023C9.61115 29.5186 9.71891 29.5616 9.74903 29.598C9.77927 29.6342 9.87683 29.664 9.96599 29.664C10.0641 29.664 10.166 29.7019 10.2241 29.76C10.2824 29.8183 10.3841 29.856 10.4829 29.856C10.5835 29.856 10.6565 29.8836 10.6735 29.928C10.6941 29.9818 10.7805 30 11.0174 30C11.1914 30 11.3219 30.0193 11.3072 30.0429C11.2669 30.1081 11.4036 30.144 11.6921 30.144C11.8854 30.144 11.9521 30.1616 11.9521 30.2125C11.9521 30.3772 18.0455 30.3922 18.2269 30.228C18.2921 30.1689 18.3998 30.144 18.5895 30.144C18.7764 30.144 18.8714 30.1224 18.8987 30.0738C18.9255 30.0256 19.0314 30.0007 19.2347 29.9947C19.4246 29.9889 19.5398 29.9636 19.5549 29.9242C19.5679 29.8904 19.6787 29.8477 19.8012 29.8293C19.9236 29.811 20.0352 29.7662 20.0491 29.73C20.063 29.6936 20.1345 29.664 20.2081 29.664C20.2827 29.664 20.354 29.6322 20.3695 29.592C20.3875 29.545 20.462 29.52 20.5831 29.52C20.7083 29.52 20.7977 29.4885 20.8561 29.424C20.9039 29.3712 20.99 29.328 21.0475 29.328C21.1051 29.328 21.2151 29.2638 21.2921 29.1853C21.3691 29.1068 21.4807 29.042 21.5401 29.0413C21.6035 29.0406 21.6481 29.0102 21.6481 28.968C21.6481 28.9195 21.6966 28.896 21.7965 28.896C21.9047 28.896 21.9519 28.8699 21.9702 28.8C21.989 28.7278 22.0357 28.704 22.1577 28.704C22.2701 28.704 22.3201 28.6818 22.3201 28.632C22.3201 28.5924 22.3525 28.56 22.3921 28.56C22.4317 28.56 22.4641 28.5276 22.4641 28.488C22.4641 28.4484 22.5055 28.416 22.5561 28.416C22.6992 28.416 22.8001 28.3642 22.8001 28.2908C22.8001 28.2483 22.8533 28.224 22.9457 28.224C23.0306 28.224 23.1026 28.1941 23.1187 28.152C23.1339 28.1124 23.1764 28.08 23.2133 28.08C23.25 28.08 23.2801 28.0476 23.2801 28.008C23.2801 27.9632 23.3253 27.936 23.3997 27.936C23.4673 27.936 23.5453 27.8942 23.5793 27.84C23.6123 27.7872 23.6664 27.744 23.6996 27.744C23.7329 27.744 23.7601 27.7116 23.7601 27.672C23.7601 27.6277 23.8051 27.6 23.8772 27.6C24.1952 27.6 24.0236 27.2905 23.3984 26.7364C22.8883 26.2844 22.0842 25.4449 21.7199 24.984C21.6155 24.852 21.5081 24.7189 21.4811 24.6882C21.4542 24.6576 21.3565 24.5223 21.2641 24.3879C21.1717 24.2534 21.0284 24.0508 20.9456 23.9377C20.8628 23.8246 20.7541 23.6574 20.7041 23.566C20.6125 23.3991 20.4289 23.0934 20.3148 22.9182C20.2565 22.8285 20.1463 22.6035 19.7631 21.792C19.6697 21.594 19.5345 21.2592 19.4628 21.048C19.391 20.8368 19.3169 20.6424 19.2978 20.616C19.2156 20.5016 18.99 19.6515 18.7947 18.72C18.3787 16.7342 18.3973 14.8293 18.8523 12.84C18.9188 12.5496 19.0003 12.1824 19.0335 12.024C19.0667 11.8656 19.1739 11.52 19.2719 11.256C19.3697 10.992 19.479 10.6842 19.5146 10.5718C19.6615 10.1102 20.429 8.63888 20.8481 8.01596C20.928 7.89716 21.0588 7.70276 21.1388 7.58396C21.6524 6.82112 22.5903 5.77951 23.4511 5.01595C23.5998 4.88395 23.7734 4.72843 23.8368 4.67023C23.9003 4.61215 23.9521 4.51063 23.9521 4.44463C23.9521 4.37863 23.9899 4.30267 24.0361 4.27579C24.1111 4.23211 24.1086 4.22671 24.0121 4.22539C23.9487 4.22455 23.9041 4.19419 23.9041 4.15195C23.9041 4.11235 23.874 4.07995 23.8373 4.07995C23.8004 4.07995 23.7579 4.04755 23.7427 4.00795C23.7266 3.96583 23.6546 3.93595 23.5697 3.93595C23.4709 3.93595 23.4241 3.91231 23.4241 3.86239C23.4241 3.82195 23.3755 3.77083 23.3161 3.74887C23.2567 3.72691 23.2189 3.68983 23.2321 3.66643C23.2453 3.64303 23.1859 3.61723 23.1001 3.60895C23.0035 3.59959 22.9441 3.56767 22.9441 3.52495C22.9441 3.48703 22.9016 3.45595 22.8497 3.45595C22.7871 3.45595 22.7641 3.43255 22.7816 3.38683C22.8006 3.33763 22.7588 3.30859 22.6361 3.28555C22.5368 3.26695 22.4641 3.22507 22.4641 3.18655C22.4641 3.14515 22.4118 3.11995 22.3253 3.11995C22.2461 3.11995 22.1745 3.08899 22.1587 3.04795C22.143 3.00679 22.0713 2.97595 21.9912 2.97595C21.8917 2.97595 21.8441 2.94823 21.8262 2.87995C21.8079 2.80999 21.7607 2.78395 21.6525 2.78395C21.5526 2.78395 21.5041 2.76043 21.5041 2.71195C21.5041 2.66455 21.4567 2.63995 21.3653 2.63995C21.2861 2.63995 21.2145 2.60899 21.1987 2.56795C21.1826 2.52583 21.1106 2.49595 21.0257 2.49595C20.9337 2.49595 20.8801 2.47147 20.8801 2.42959C20.8801 2.35747 20.738 2.30563 20.5373 2.30455C20.4674 2.30419 20.3978 2.27131 20.3826 2.23147C20.3673 2.19163 20.3379 2.16187 20.3174 2.16523C20.1421 2.19391 19.9201 2.15083 19.9201 2.08795C19.9201 2.03383 19.862 2.01595 19.6857 2.01595C19.4917 2.01595 19.4469 1.99939 19.4262 1.91995C19.4046 1.83739 19.3607 1.82395 19.1137 1.82395C18.9026 1.82395 18.8191 1.80487 18.7987 1.75195C18.7781 1.69807 18.692 1.67995 18.4577 1.67995C18.2109 1.67995 18.1441 1.66459 18.1441 1.60795C18.1441 1.55143 18.0777 1.53595 17.8345 1.53595C17.5895 1.53595 17.5151 1.51843 17.4779 1.45195C17.4246 1.35655 13.0518 1.30063 12.8281 1.39255ZM41.5201 3.97879C41.5201 4.04539 41.7028 4.14019 41.7748 4.11091C41.8072 4.09771 41.7971 4.08583 41.7516 4.08379C41.7072 4.08163 41.637 4.04599 41.5956 4.00447C41.5541 3.96307 41.5201 3.95143 41.5201 3.97879ZM44.7367 7.20104C44.7647 7.25324 44.8076 7.29596 44.8324 7.29596C44.8985 7.29596 44.8361 7.16372 44.7553 7.13276C44.6996 7.1114 44.6959 7.12484 44.7367 7.20104ZM46.0561 22.368C46.0084 22.4208 45.9935 22.464 46.023 22.464C46.0525 22.464 46.0999 22.4208 46.1281 22.368C46.1563 22.3152 46.1713 22.272 46.1612 22.272C46.1512 22.272 46.1039 22.3152 46.0561 22.368ZM43.6534 25.844C43.6021 25.8814 43.573 25.9248 43.5884 25.9404C43.604 25.9558 43.6559 25.9252 43.7039 25.8722C43.8059 25.7595 43.7849 25.7479 43.6534 25.844ZM43.484 26.1062C43.3445 26.2488 43.3254 26.33 43.4632 26.1952C43.5377 26.1223 43.59 26.0548 43.5794 26.0455C43.5688 26.036 43.5259 26.0634 43.484 26.1062ZM26.3521 28.9348C26.3521 28.9606 26.3863 28.9948 26.4281 29.0108C26.4749 29.0288 26.4968 29.0181 26.4851 28.983C26.4612 28.9112 26.3521 28.8717 26.3521 28.9348ZM39.0308 29.2335C38.9626 29.2904 38.9437 29.328 38.9832 29.328C39.0194 29.328 39.076 29.2848 39.109 29.232C39.1826 29.114 39.1741 29.1142 39.0308 29.2335ZM38.6641 29.424C38.5849 29.4764 38.5447 29.5195 38.5748 29.5196C38.6273 29.52 38.8814 29.3325 38.8321 29.3299C38.8189 29.3292 38.7433 29.3715 38.6641 29.424ZM2.0161 33.4023C2.0161 33.4483 2.26559 33.5098 2.30267 33.4731C2.33663 33.4395 2.19611 33.3615 2.10011 33.3607C2.05391 33.3603 2.0161 33.379 2.0161 33.4023ZM2.55611 33.564C2.56703 33.597 2.61683 33.6319 2.66651 33.6415C2.74487 33.6567 2.74835 33.6486 2.69267 33.5815C2.61659 33.4898 2.52755 33.4783 2.55611 33.564Z" fill="#EC041B"/>
    <path fill-rule="evenodd" clip-rule="evenodd" d="M30.8162 1.39268C30.8162 1.4168 30.7703 1.46108 30.7144 1.49108C30.6321 1.53512 30.6196 1.53308 30.6494 1.48076C30.6791 1.42856 30.6737 1.4276 30.6216 1.47596C30.586 1.50896 30.4473 1.53596 30.3132 1.53596C30.1792 1.53596 30.0255 1.5668 29.9717 1.60448C29.918 1.64216 29.7321 1.67936 29.5587 1.68704C29.3266 1.69748 29.2496 1.7174 29.2668 1.76264C29.2875 1.81616 28.8198 1.85912 28.7291 1.81196C28.7164 1.80536 28.672 1.84856 28.6304 1.90796C28.5777 1.98308 28.5062 2.01596 28.3953 2.01596C28.3077 2.01596 28.209 2.04836 28.1762 2.08796C28.1433 2.12756 28.0613 2.15996 27.9941 2.15996C27.9268 2.15996 27.8373 2.19116 27.7952 2.22932C27.753 2.26736 27.6324 2.30516 27.5273 2.31332C27.4149 2.32196 27.3104 2.36252 27.2734 2.41196C27.239 2.45816 27.158 2.49596 27.0934 2.49596C27.0212 2.49596 26.9762 2.52356 26.9762 2.56796C26.9762 2.61572 26.9284 2.63996 26.8346 2.63996C26.7522 2.63996 26.6741 2.67344 26.6482 2.72C26.6193 2.7716 26.5419 2.79992 26.4298 2.79992C26.3343 2.79992 26.2562 2.81924 26.2562 2.84276C26.2562 2.8664 26.2308 2.87 26.2 2.85092C26.1622 2.82764 26.1539 2.8424 26.1744 2.89604C26.1978 2.957 26.1776 2.97596 26.089 2.97596C26.0252 2.97596 25.9557 3.00632 25.9346 3.0434C25.9134 3.08048 25.8534 3.11828 25.8012 3.1274C25.749 3.13652 25.6676 3.17612 25.6203 3.21548C25.573 3.25472 25.4969 3.28712 25.4512 3.28748C25.4018 3.28772 25.3708 3.32192 25.3749 3.37196C25.3799 3.43676 25.3443 3.45596 25.2189 3.45596C25.1062 3.45596 25.0562 3.47816 25.0562 3.52796C25.0562 3.59156 25.0019 3.62 24.9047 3.60716C24.8874 3.60488 24.8442 3.64016 24.8087 3.68552C24.7505 3.75992 24.7523 3.76148 24.8282 3.70208C24.8744 3.66584 24.9122 3.65696 24.9122 3.6824C24.9122 3.70772 24.8568 3.7538 24.7892 3.78464C24.6917 3.82892 24.6722 3.82808 24.6953 3.78032C24.7114 3.74708 24.6886 3.76856 24.6446 3.82796C24.6005 3.88736 24.538 3.93596 24.5056 3.93596C24.4733 3.93596 24.3976 3.97868 24.3374 4.031C24.2771 4.0832 24.2112 4.11572 24.191 4.10324C24.1378 4.07036 24.096 4.205 24.0966 4.40792C24.097 4.56944 24.1331 4.61576 24.5334 4.96796C25.3542 5.69012 26.4357 6.87872 26.8484 7.51196C26.9172 7.61756 27.0363 7.79036 27.113 7.89596C27.2416 8.0732 27.6447 8.73668 27.7766 8.98832C28.0775 9.56276 28.3889 10.2284 28.4922 10.5183C28.5616 10.7128 28.6473 10.9368 28.6827 11.016C28.801 11.2804 28.927 11.6842 29.0123 12.072C29.0588 12.2832 29.1257 12.5532 29.1611 12.672C29.2216 12.8751 29.307 13.3113 29.4383 14.088C29.5167 14.5516 29.5145 17.2891 29.4354 17.736C29.1531 19.3322 28.9637 20.0847 28.6323 20.928C28.544 21.1524 28.4565 21.3888 28.4378 21.4533C28.3961 21.5971 27.83 22.743 27.6538 23.04C27.5834 23.1588 27.4832 23.3282 27.431 23.4164C26.7108 24.6346 25.3854 26.1612 24.3002 27.0222C24.0791 27.1975 23.9883 27.6 24.1697 27.6C24.21 27.6 24.2556 27.6324 24.2708 27.672C24.286 27.7116 24.3346 27.744 24.3786 27.744C24.4228 27.744 24.4901 27.7872 24.5282 27.84C24.5662 27.8928 24.6358 27.936 24.6827 27.936C24.7298 27.936 24.7682 27.9684 24.7682 28.008C24.7682 28.056 24.8162 28.08 24.9122 28.08C25.0082 28.08 25.0562 28.104 25.0562 28.152C25.0562 28.1916 25.0863 28.224 25.123 28.224C25.1598 28.224 25.2023 28.2564 25.2176 28.296C25.2327 28.3356 25.299 28.368 25.3649 28.368C25.4356 28.368 25.5058 28.4073 25.5362 28.464C25.5698 28.5268 25.6367 28.56 25.7298 28.56C25.8244 28.56 25.8722 28.5842 25.8722 28.632C25.8722 28.6726 25.9151 28.704 25.971 28.704C26.0254 28.704 26.0585 28.7223 26.0446 28.7448C26.0175 28.7887 26.2083 28.9078 26.2828 28.8934C26.4026 28.8702 26.4962 28.9029 26.4962 28.968C26.4962 29.0346 26.5557 29.0624 26.658 29.0437C26.6811 29.0395 26.6892 29.064 26.6763 29.098C26.6601 29.1403 26.7071 29.164 26.824 29.1727C26.9183 29.1796 27.0412 29.2282 27.097 29.2807C27.1527 29.3331 27.2334 29.376 27.2764 29.376C27.3194 29.376 27.3699 29.4009 27.3887 29.4314C27.4118 29.4686 27.401 29.474 27.3556 29.4477C27.3185 29.4261 27.3041 29.4261 27.3236 29.4477C27.343 29.4692 27.4498 29.4936 27.5608 29.5018C27.6794 29.5106 27.7796 29.5472 27.8038 29.5904C27.8264 29.6308 27.8855 29.664 27.9351 29.664C27.9848 29.664 28.0558 29.6944 28.0931 29.7318C28.1304 29.7691 28.2444 29.8129 28.3466 29.8291C28.4487 29.8453 28.5478 29.8839 28.5669 29.9148C28.586 29.9457 28.7429 29.98 28.9156 29.991C29.1027 30.0028 29.2518 30.0379 29.2847 30.0775C29.3184 30.118 29.4344 30.144 29.5822 30.144C29.7456 30.144 29.8548 30.1713 29.9175 30.228C30.0609 30.3578 35.9265 30.3578 36.0213 30.228C36.0657 30.1672 36.1496 30.144 36.3236 30.144C36.4677 30.144 36.5861 30.1178 36.6184 30.0789C36.6482 30.043 36.8151 30.0004 36.9898 29.9841C37.1644 29.9679 37.336 29.9306 37.3712 29.9014C37.4063 29.8723 37.5065 29.8376 37.5936 29.8244C37.6809 29.8112 37.8 29.7697 37.8585 29.7322C37.9169 29.6947 37.9908 29.664 38.0226 29.664C38.0546 29.664 38.1177 29.6304 38.163 29.5894C38.2083 29.5484 38.2911 29.5113 38.3468 29.5071C38.4026 29.5029 38.4482 29.4842 38.4482 29.4655C38.4482 29.4468 38.5292 29.4054 38.6282 29.3736C38.7272 29.3419 38.8446 29.2839 38.8894 29.245C38.934 29.206 39.024 29.171 39.0893 29.167C39.1547 29.1632 39.2045 29.1393 39.2001 29.1141C39.1925 29.0704 39.222 29.0595 39.3842 29.046C39.4238 29.0427 39.4562 29.0103 39.4562 28.9741C39.4562 28.9342 39.5328 28.896 39.65 28.8772C39.7566 28.8602 39.8561 28.8142 39.8711 28.7751C39.8861 28.736 39.9393 28.704 39.9893 28.704C40.0392 28.704 40.0802 28.6729 40.0802 28.635C40.0802 28.5922 40.1396 28.5603 40.2362 28.551C40.3295 28.542 40.3874 28.5118 40.3802 28.476C40.3697 28.424 40.4998 28.3898 40.6242 28.4116C40.6463 28.4155 40.6758 28.3749 40.6899 28.3213C40.7048 28.2646 40.7553 28.224 40.8108 28.224C40.8761 28.224 40.8976 28.201 40.8788 28.152C40.8584 28.0988 40.8855 28.08 40.982 28.08C41.0702 28.08 41.1632 28.0251 41.267 27.912C41.3518 27.8196 41.4657 27.744 41.5202 27.744C41.5746 27.744 41.6316 27.7116 41.6468 27.672C41.662 27.6324 41.7008 27.6 41.7329 27.6C41.8061 27.6 42.0002 27.3974 42.0002 27.3208C42.0002 27.2895 42.065 27.264 42.1442 27.264C42.2402 27.264 42.2882 27.24 42.2882 27.192C42.2882 27.1261 42.3467 27.0979 42.4478 27.1155C42.4695 27.1192 42.4752 27.1029 42.4606 27.0792C42.4245 27.0207 42.6174 26.8216 42.7815 26.7483C42.8548 26.7156 42.9273 26.6563 42.9425 26.6167C42.9578 26.577 42.9874 26.5551 43.0085 26.5682C43.0295 26.5812 43.0694 26.527 43.097 26.448C43.1246 26.3688 43.1696 26.304 43.197 26.304C43.2645 26.304 43.5813 25.9591 43.5828 25.884C43.5835 25.851 43.6073 25.824 43.6356 25.824C43.6638 25.824 43.7194 25.7916 43.759 25.752C43.7986 25.7124 43.8178 25.68 43.8017 25.68C43.7855 25.68 43.8003 25.6498 43.8342 25.613C43.8683 25.5762 43.9124 25.5559 43.9322 25.5679C43.952 25.5798 43.9682 25.5718 43.9682 25.5501C43.9682 25.5285 44.0166 25.4894 44.0759 25.4634C44.1351 25.4373 44.1917 25.3729 44.2017 25.3202C44.2116 25.2675 44.2603 25.1727 44.3099 25.1097C44.3596 25.0466 44.4002 24.9655 44.4002 24.9295C44.4002 24.8935 44.4303 24.864 44.467 24.864C44.5038 24.864 44.5468 24.8302 44.5626 24.789C44.5788 24.747 44.616 24.7291 44.6472 24.7483C44.6819 24.7698 44.6901 24.7618 44.6687 24.7274C44.6499 24.6969 44.6586 24.672 44.6881 24.672C44.7177 24.672 44.7294 24.6519 44.7143 24.6274C44.6992 24.603 44.7306 24.569 44.7842 24.552C44.8377 24.5349 44.8709 24.5038 44.8578 24.4827C44.8447 24.4616 44.8769 24.395 44.9291 24.3348C44.9814 24.2745 45.0242 24.1842 45.0242 24.1338C45.0242 24.0835 45.0434 24.0541 45.0667 24.0686C45.0901 24.0831 45.136 24.0627 45.1686 24.0235C45.2013 23.9841 45.2091 23.9512 45.186 23.9503C45.163 23.9493 45.1874 23.9223 45.2402 23.8903C45.2929 23.8582 45.3419 23.778 45.3491 23.712C45.3562 23.646 45.3888 23.5704 45.4217 23.544C45.5182 23.4664 45.6665 23.2155 45.6741 23.1168C45.678 23.0666 45.7169 22.9995 45.7607 22.9675C45.8044 22.9356 45.8401 22.8619 45.8401 22.8038C45.8401 22.7458 45.8594 22.7101 45.8828 22.7246C45.9264 22.7516 45.9823 22.6006 45.9836 22.452C45.9839 22.4058 46.0274 22.3248 46.0802 22.272C46.1329 22.2192 46.1761 22.1328 46.1761 22.08C46.1761 22.0267 46.2082 21.984 46.2481 21.984C46.298 21.984 46.3201 21.9339 46.3201 21.8211C46.3201 21.7206 46.3478 21.6476 46.3922 21.6306C46.44 21.6122 46.4642 21.5367 46.4642 21.405C46.4642 21.2478 46.4838 21.2018 46.5597 21.182C46.6121 21.1683 46.6448 21.1404 46.6322 21.12C46.5996 21.0674 46.7049 20.784 46.7568 20.784C46.7807 20.784 46.8001 20.6868 46.8001 20.568C46.8001 20.4207 46.8192 20.3558 46.8601 20.364C46.9012 20.3721 46.9277 20.2803 46.9442 20.0742C46.958 19.9017 46.995 19.7559 47.0307 19.7338C47.0885 19.6981 47.1199 19.563 47.1458 19.2393C47.1514 19.1685 47.1707 19.1197 47.1886 19.1307C47.2396 19.1622 47.2788 18.9616 47.2795 18.6658C47.2799 18.4822 47.3038 18.3762 47.3538 18.3346C47.4478 18.2566 47.4403 13.4565 47.346 13.3393C47.3163 13.3022 47.2819 13.1457 47.2697 12.9915C47.2575 12.8373 47.2251 12.6969 47.1975 12.6795C47.17 12.6621 47.137 12.5418 47.1243 12.412C47.1103 12.271 47.0694 12.153 47.0226 12.1188C46.9648 12.0764 46.9442 11.984 46.9442 11.7667C46.9442 11.6022 46.9229 11.472 46.8961 11.472C46.8697 11.472 46.8481 11.449 46.8481 11.4211C46.8481 11.3931 46.8751 11.384 46.9081 11.4007C46.9412 11.4174 46.9304 11.4001 46.8842 11.3623C46.838 11.3244 46.8001 11.2357 46.8001 11.1651C46.8001 11.0947 46.7677 11.0245 46.7281 11.0094C46.6882 10.994 46.6561 10.9227 46.6561 10.8493C46.6561 10.7764 46.6142 10.6635 46.5628 10.5982C46.5068 10.527 46.4648 10.3899 46.4578 10.2558C46.4502 10.1089 46.4245 10.032 46.3831 10.032C46.3485 10.032 46.3201 9.98852 46.3201 9.93548C46.3201 9.88244 46.277 9.80204 46.2242 9.7568C46.1714 9.71156 46.1282 9.638 46.1282 9.59324C46.1282 9.46688 46.0746 9.35768 46.0271 9.38708C46.0035 9.40172 45.9841 9.37784 45.9841 9.33416C45.9841 9.29048 45.9532 9.19748 45.9153 9.1274C45.8775 9.05732 45.8338 8.94056 45.8184 8.86796C45.8021 8.79116 45.7584 8.73596 45.7142 8.73596C45.666 8.73596 45.6482 8.70932 45.6656 8.66396C45.6807 8.62436 45.6723 8.59196 45.6466 8.59196C45.621 8.59196 45.5998 8.55416 45.5994 8.50796C45.5988 8.4362 45.5919 8.4344 45.5522 8.49596C45.5159 8.55212 45.5055 8.5388 45.5049 8.43596C45.5045 8.36336 45.4609 8.26076 45.4081 8.20796C45.3554 8.15516 45.3122 8.05724 45.3122 7.9904C45.3122 7.92368 45.2798 7.85648 45.2402 7.84136C45.2006 7.82612 45.1682 7.77284 45.1682 7.7228C45.1682 7.67288 45.1357 7.63196 45.0961 7.63196C45.0565 7.63196 45.0242 7.61132 45.0242 7.58612C45.0242 7.5224 44.7915 7.29596 44.726 7.29596C44.6963 7.29596 44.6848 7.28324 44.7003 7.26788C44.7158 7.2524 44.6439 7.1282 44.5406 6.99188C44.4371 6.85544 44.3525 6.71696 44.3524 6.68396C44.3523 6.65096 44.3184 6.62396 44.2773 6.62396C44.2361 6.62396 44.216 6.60224 44.2324 6.5756C44.2488 6.54908 44.2247 6.51284 44.1789 6.49532C44.0585 6.44912 43.9202 6.29972 43.9202 6.21596C43.9202 6.17636 43.8877 6.14396 43.8482 6.14396C43.7672 6.14396 43.5842 5.97752 43.5842 5.90396C43.5842 5.87756 43.5518 5.85596 43.5122 5.85596C43.4726 5.85596 43.4402 5.82728 43.4402 5.79236C43.4402 5.71508 43.2402 5.51996 43.161 5.51996C43.1297 5.51996 43.1042 5.48756 43.1042 5.44796C43.1042 5.40836 43.0718 5.37596 43.0322 5.37596C42.9926 5.37596 42.9602 5.33348 42.9602 5.28152C42.9602 5.21984 42.9366 5.19596 42.8925 5.21288C42.8518 5.2286 42.8122 5.1992 42.7932 5.13944C42.7758 5.08472 42.7307 5.03996 42.6929 5.03996C42.6551 5.03996 42.6242 5.00756 42.6242 4.96796C42.6242 4.92836 42.5918 4.89596 42.5522 4.89596C42.511 4.89596 42.4802 4.85276 42.4802 4.7948C42.4802 4.72496 42.4581 4.70216 42.4086 4.72112C42.3615 4.73924 42.3278 4.71104 42.3094 4.63832C42.2943 4.5776 42.2508 4.52432 42.2129 4.52C42.1751 4.51556 42.1118 4.50836 42.0722 4.50392C42.0051 4.49648 41.9836 4.45484 42.0122 4.38788C42.0188 4.3724 41.9524 4.32968 41.8648 4.29272C41.7771 4.25588 41.719 4.2038 41.7356 4.1768C41.7522 4.14992 41.732 4.12796 41.6906 4.12796C41.6492 4.12796 41.5782 4.08476 41.533 4.03196C41.4878 3.97916 41.4321 3.93596 41.409 3.93596C41.3861 3.93596 41.3128 3.893 41.2461 3.84056C41.1795 3.78812 41.1074 3.75608 41.086 3.76928C41.0645 3.78248 41.0333 3.74984 41.0164 3.69668C40.9995 3.64352 40.964 3.59996 40.9374 3.59996C40.911 3.59996 40.8569 3.56756 40.8173 3.52796C40.7777 3.48836 40.6929 3.45596 40.6287 3.45596C40.5477 3.45596 40.5122 3.42908 40.5122 3.368C40.5122 3.30584 40.4804 3.2828 40.4042 3.28964C40.3364 3.29576 40.2395 3.24056 40.1441 3.14168C40.0605 3.05504 39.9838 2.9924 39.9737 3.00248C39.9322 3.04388 39.6731 2.9366 39.6854 2.88296C39.6926 2.85104 39.6764 2.83856 39.6494 2.85524C39.6222 2.87192 39.6002 2.86736 39.6002 2.84504C39.6002 2.82272 39.5304 2.79908 39.4451 2.7926C39.3599 2.78612 39.2724 2.74904 39.2508 2.7104C39.2291 2.67164 39.1578 2.63996 39.0923 2.63996C39.0268 2.63996 38.9607 2.60756 38.9456 2.56796C38.93 2.52752 38.8586 2.49596 38.7826 2.49596C38.6943 2.49596 38.6418 2.468 38.6316 2.4158C38.6206 2.35856 38.555 2.33072 38.4026 2.31848C38.2851 2.30912 38.1537 2.26964 38.1107 2.23064C38.0678 2.19176 37.9764 2.15996 37.9078 2.15996C37.8392 2.15996 37.7506 2.12756 37.711 2.08796C37.6714 2.04836 37.5806 2.01596 37.5092 2.01596C37.4379 2.01596 37.3445 1.97816 37.3018 1.93196C37.2528 1.87904 37.1354 1.84232 36.9842 1.8326C36.8522 1.8242 36.6814 1.7864 36.6048 1.7486C36.5282 1.71092 36.3662 1.67924 36.2448 1.6784C36.1234 1.67756 35.9823 1.64516 35.931 1.6064C35.877 1.5656 35.7336 1.53596 35.5901 1.53596C35.3187 1.53596 35.0256 1.45424 35.0655 1.38968C35.0794 1.36724 34.129 1.34888 32.9535 1.34888C31.695 1.34888 30.8162 1.36688 30.8162 1.39268ZM4.82417 32.4472C3.08177 32.4608 1.62917 32.4895 1.59617 32.5108C1.45985 32.599 1.51949 33.216 1.66445 33.216C1.73489 33.216 1.83341 33.2528 1.88321 33.2979C1.94477 33.3537 2.03657 33.3754 2.16977 33.3658C2.31737 33.3552 2.35961 33.3675 2.34125 33.4158C2.32373 33.4618 2.37197 33.4832 2.51141 33.4915C2.61845 33.4978 2.71817 33.5217 2.73305 33.5445C2.74793 33.5674 2.83925 33.6118 2.93597 33.6433C3.03257 33.6748 3.12197 33.7274 3.13457 33.7602C3.14705 33.7928 3.24077 33.8248 3.34277 33.8313C3.44477 33.8377 3.55013 33.8692 3.57701 33.9014C3.65597 33.9962 3.85961 34.1569 3.82469 34.097C3.80717 34.0668 3.82505 34.0297 3.86441 34.0144C3.90629 33.9985 3.93617 34.014 3.93617 34.0519C3.93617 34.1136 4.10297 34.195 4.19573 34.1786C4.21973 34.1744 4.25549 34.197 4.27517 34.2289C4.29497 34.2608 4.37105 34.2932 4.44437 34.3011C4.51769 34.3089 4.59641 34.3488 4.61933 34.3897C4.64225 34.4305 4.71689 34.464 4.78529 34.464C4.85369 34.464 4.93361 34.4966 4.96289 34.5366C4.99217 34.5764 5.07005 34.6194 5.13605 34.6321C5.20193 34.6447 5.26313 34.6768 5.27201 34.7035C5.29625 34.7761 5.37617 34.7619 5.37617 34.6851C5.37617 34.6005 5.49485 34.5532 5.60297 34.5948C5.68421 34.626 6.76925 35.3634 6.81617 35.4194C6.82937 35.4351 6.94229 35.5299 7.06697 35.6302C7.19177 35.7304 7.32173 35.8384 7.35593 35.8702C7.39001 35.9019 7.52465 36.0243 7.65509 36.1422C7.78553 36.26 8.07677 36.562 8.30225 36.8134C8.52773 37.0647 8.76209 37.3248 8.82305 37.3911C9.14093 37.7376 10.1273 39.3572 10.1279 39.5341C10.128 39.5638 10.1591 39.614 10.197 39.6454C10.235 39.6769 10.2794 39.7636 10.2958 39.8383C10.3595 40.1284 10.6906 40.2351 10.6376 39.9483C10.5928 39.7064 10.5497 39.6008 10.5068 39.6273C10.4732 39.6481 10.4337 39.0253 10.4585 38.868C10.4616 38.8482 10.4399 38.832 10.4103 38.832C10.3734 38.832 10.3756 38.8089 10.4171 38.7589C10.4672 38.6985 10.4654 38.6905 10.4069 38.7129C10.3498 38.7349 10.334 38.6823 10.3253 38.4416C10.3193 38.2774 10.2934 38.1037 10.2676 38.0556C10.2336 37.992 10.2377 37.9676 10.2825 37.9664C10.3204 37.9654 10.3096 37.9388 10.2548 37.8972C10.1984 37.8546 10.159 37.7529 10.1483 37.6227C10.1388 37.509 10.1 37.3296 10.0619 37.224C9.99905 37.0501 10 37.0288 10.0724 36.9993C10.1397 36.9718 10.1372 36.9661 10.0562 36.9626C9.98357 36.9595 9.97601 36.9484 10.0253 36.9172C10.0638 36.8929 10.0713 36.8641 10.0436 36.847C10.0179 36.8311 9.98225 36.7269 9.96437 36.6154C9.94649 36.504 9.91253 36.3894 9.88889 36.3608C9.86513 36.3322 9.84137 36.1422 9.83597 35.9384C9.83057 35.7346 9.80921 35.568 9.78845 35.568C9.73169 35.568 9.68705 35.3924 9.67397 35.1175C9.65969 34.8207 9.60917 34.6448 9.54869 34.6821C9.52277 34.6982 9.50417 34.5507 9.50417 34.3287C9.50417 34.0486 9.48509 33.9319 9.43217 33.888C9.39113 33.8539 9.36017 33.7492 9.36017 33.6445C9.36017 33.5277 9.33281 33.4454 9.28517 33.4188C9.24389 33.3957 9.20489 33.341 9.19853 33.2974C9.19205 33.2538 9.13721 33.1652 9.07649 33.1005C9.00869 33.0284 8.98025 32.9586 9.00281 32.9196C9.02309 32.8845 9.02201 32.8718 9.00065 32.8912C8.97917 32.9106 8.93537 32.8905 8.90321 32.8465C8.87105 32.8024 8.78561 32.7585 8.71337 32.7489C8.64113 32.7392 8.52125 32.6864 8.44697 32.6314C8.35517 32.5636 8.27393 32.5412 8.19353 32.5614C8.07581 32.5909 7.93565 32.4966 8.00057 32.4315C8.01797 32.4141 8.02313 32.405 8.01221 32.4112C8.00117 32.4175 6.56657 32.4337 4.82417 32.4472Z" fill="#F49C1B"/>
    <path fill-rule="evenodd" clip-rule="evenodd" d="M30.6543 1.46493C30.6314 1.52457 30.6437 1.52877 30.7211 1.48725C30.8324 1.42773 30.8429 1.39185 30.7492 1.39185C30.7124 1.39185 30.6696 1.42473 30.6543 1.46493ZM29.8781 1.58709C29.8272 1.66941 29.8727 1.67745 29.9733 1.60389C30.0512 1.54701 30.0536 1.53585 29.988 1.53585C29.945 1.53585 29.8955 1.55889 29.8781 1.58709ZM35.9308 1.60389C36.0314 1.67745 36.0769 1.66941 36.026 1.58709C36.0086 1.55889 35.9591 1.53585 35.916 1.53585C35.8505 1.53585 35.8529 1.54701 35.9308 1.60389ZM37.68 2.05473C37.68 2.08053 37.7142 2.11473 37.756 2.13069C37.8028 2.14869 37.8248 2.13801 37.813 2.10285C37.7891 2.03109 37.68 1.99161 37.68 2.05473ZM24.792 3.72381C24.6488 3.84381 24.6486 3.84417 24.7774 3.78765C24.8486 3.75645 24.918 3.70137 24.9318 3.66537C24.9644 3.58065 24.9618 3.58173 24.792 3.72381ZM41.7364 4.17525C41.7215 4.19925 41.755 4.24341 41.8108 4.27329C41.942 4.34349 41.9589 4.31757 41.8498 4.21365C41.8024 4.16841 41.7514 4.15113 41.7364 4.17525ZM23.9841 4.30389C23.9664 4.32141 23.952 4.38729 23.952 4.45017C23.952 4.56609 23.9306 4.59045 23.451 5.01585C22.5903 5.77941 21.6524 6.82101 21.1388 7.58385C21.0587 7.70265 20.9279 7.89705 20.848 8.01585C20.429 8.63877 19.6614 10.1101 19.5146 10.5717C19.4789 10.6841 19.3696 10.9919 19.2718 11.2559C19.1739 11.5199 19.0666 11.8655 19.0335 12.0239C19.0002 12.1823 18.9188 12.5495 18.8523 12.8399C18.3972 14.8292 18.3786 16.7341 18.7947 18.7199C18.9899 19.6514 19.2155 20.5015 19.2977 20.6159C19.3168 20.6423 19.391 20.8367 19.4627 21.0479C19.5345 21.2591 19.6696 21.5939 19.7631 21.7919C20.1462 22.6034 20.2564 22.8284 20.3147 22.9181C20.4288 23.0933 20.6124 23.399 20.704 23.5659C20.754 23.6573 20.8628 23.8245 20.9456 23.9376C21.0284 24.0507 21.1716 24.2533 21.264 24.3878C21.3564 24.5222 21.4541 24.6575 21.481 24.6881C21.508 24.7188 21.6155 24.8519 21.72 24.9839C22.0923 25.4541 22.8627 26.2586 23.3988 26.7368C23.7092 27.0137 23.9559 27.2727 23.9726 27.3392C24.0128 27.4993 24.096 27.4863 24.096 27.3199C24.096 27.2173 24.1462 27.1442 24.3 27.0221C25.3853 26.1611 26.7107 24.6345 27.4308 23.4163C27.483 23.3281 27.5832 23.1587 27.6537 23.0399C27.8298 22.7429 28.396 21.597 28.4376 21.4532C28.4564 21.3887 28.5438 21.1523 28.6322 20.9279C28.9636 20.0846 29.153 19.3321 29.4353 17.7359C29.5144 17.289 29.5166 14.5515 29.4382 14.0879C29.3069 13.3112 29.2215 12.875 29.161 12.6719C29.1256 12.5531 29.0586 12.2831 29.0122 12.0719C28.9269 11.6841 28.8009 11.2803 28.6826 11.0159C28.6472 10.9367 28.5615 10.7127 28.4921 10.5182C28.3888 10.2283 28.0774 9.56265 27.7764 8.98821C27.6446 8.73657 27.2415 8.07309 27.1128 7.89585C27.0362 7.79025 26.9171 7.61745 26.8482 7.51185C26.4356 6.87861 25.3541 5.69001 24.5333 4.96785C24.1523 4.63257 24.0969 4.56405 24.0965 4.42785C24.096 4.27965 24.0543 4.23357 23.9841 4.30389ZM41.9855 4.44741C42 4.48509 42.0229 4.50501 42.0363 4.49157C42.0497 4.47825 42.1065 4.49157 42.1624 4.52145C42.2516 4.56897 42.2565 4.56645 42.2025 4.50093C42.1174 4.39773 41.9507 4.35657 41.9855 4.44741ZM43.3357 5.63097C43.3931 5.69205 43.4401 5.76765 43.4401 5.79897C43.4401 5.83029 43.4617 5.85585 43.488 5.85585C43.5145 5.85585 43.536 5.83941 43.536 5.81937C43.536 5.77401 43.3033 5.51985 43.2617 5.51985C43.2451 5.51985 43.2783 5.56989 43.3357 5.63097ZM44.6161 7.10385C44.6638 7.15665 44.7111 7.19985 44.7212 7.19985C44.7313 7.19985 44.7163 7.15665 44.688 7.10385C44.6599 7.05105 44.6124 7.00785 44.5829 7.00785C44.5534 7.00785 44.5683 7.05105 44.6161 7.10385ZM46.1336 9.57717C46.1306 9.63069 46.1713 9.71145 46.2241 9.75669C46.2769 9.80193 46.3201 9.81861 46.3201 9.79377C46.3201 9.76893 46.2901 9.73137 46.2535 9.71025C46.2167 9.68913 46.1761 9.62865 46.163 9.57585C46.1395 9.48093 46.1391 9.48093 46.1336 9.57717ZM46.0641 22.2839C46.0156 22.3345 45.9851 22.385 45.9963 22.3962C46.0075 22.4073 46.0559 22.373 46.1041 22.3199C46.2167 22.1953 46.1803 22.1624 46.0641 22.2839ZM45.6977 23.0367C45.6187 23.1845 45.6399 23.208 45.7441 23.0879C45.8527 22.9626 45.8591 22.9439 45.7937 22.9439C45.7683 22.9439 45.7251 22.9856 45.6977 23.0367ZM44.3849 24.9643C44.3597 25.0607 44.3625 25.0613 44.4514 24.9809C44.5616 24.881 44.5655 24.8639 44.4777 24.8639C44.4411 24.8639 44.3995 24.9091 44.3849 24.9643ZM43.4251 26.1025C43.3541 26.1765 43.2961 26.256 43.2961 26.2791C43.2961 26.3023 43.3609 26.2485 43.4401 26.1599C43.5193 26.0712 43.5841 25.9916 43.5841 25.9832C43.5841 25.9475 43.5467 25.9755 43.4251 26.1025ZM38.993 29.1835C38.8813 29.2286 38.798 29.3279 38.8719 29.3279C38.897 29.3279 38.9684 29.2854 39.0308 29.2334C39.155 29.13 39.1481 29.1209 38.993 29.1835ZM26.9237 29.2507C26.9542 29.2874 27.0237 29.3291 27.078 29.3433C27.1728 29.3682 27.1734 29.3654 27.093 29.2765C26.9937 29.1667 26.8338 29.1423 26.9237 29.2507ZM38.5801 29.3837C38.5075 29.4102 38.448 29.451 38.448 29.4744C38.448 29.5237 38.5745 29.484 38.7107 29.3919C38.8202 29.3179 38.7691 29.3147 38.5801 29.3837ZM27.216 29.429C27.216 29.4582 27.2458 29.4707 27.2822 29.4567C27.3185 29.4428 27.377 29.4566 27.4119 29.4876C27.4646 29.5343 27.4646 29.5295 27.4119 29.4599C27.3411 29.3664 27.216 29.3466 27.216 29.429ZM27.696 29.5919C27.7289 29.6315 27.774 29.6639 27.7964 29.6639C27.8188 29.6639 27.8246 29.6315 27.8094 29.5919C27.7942 29.5523 27.7491 29.5199 27.709 29.5199C27.6498 29.5199 27.6474 29.5333 27.696 29.5919ZM1.60516 32.4755C1.55392 32.517 1.54444 32.5332 1.58404 32.5115C1.62364 32.4896 3.06004 32.4607 4.77604 32.4471L7.89604 32.4225L4.79716 32.4111C2.03836 32.4011 1.6882 32.4081 1.60516 32.4755ZM8.49604 32.6639C8.52892 32.7035 8.5774 32.7359 8.6038 32.7359C8.63056 32.7359 8.6254 32.7041 8.59204 32.6639C8.55916 32.6243 8.51068 32.5919 8.48428 32.5919C8.45752 32.5919 8.46268 32.6237 8.49604 32.6639ZM2.68804 33.5759C2.72092 33.6155 2.78296 33.6453 2.82592 33.6423C2.8918 33.6375 2.89096 33.6333 2.82004 33.6147C2.77384 33.6027 2.73604 33.5729 2.73604 33.5484C2.73604 33.5239 2.7118 33.5039 2.68216 33.5039C2.64496 33.5039 2.64676 33.5261 2.68804 33.5759ZM9.36004 33.7801C9.36004 33.8065 9.39244 33.855 9.43204 33.8879C9.47224 33.9212 9.50404 33.9264 9.50404 33.8996C9.50404 33.8732 9.47164 33.8247 9.43204 33.7919C9.39184 33.7585 9.36004 33.7533 9.36004 33.7801ZM10.034 37.1583C10.0858 37.3392 10.1552 37.419 10.1118 37.2479C10.095 37.1819 10.081 37.1009 10.0806 37.0679C10.0803 37.0349 10.06 37.0079 10.0354 37.0079C10.0082 37.0079 10.0076 37.0667 10.034 37.1583Z" fill="#FB5B04"/>
    <path fill-rule="evenodd" clip-rule="evenodd" d="M5.44459 34.597C5.32279 34.6796 5.33539 34.7822 5.46499 34.7644C5.55091 34.7527 5.67499 34.8022 5.84827 34.9175C5.98915 35.0113 6.11335 35.0879 6.12427 35.0879C6.13519 35.0879 6.18187 35.122 6.22807 35.1637C6.27427 35.2054 6.46447 35.3512 6.65083 35.4877C7.15435 35.8567 8.25607 36.8499 8.25607 36.9347C8.25607 36.9443 8.33023 37.0348 8.42095 37.136C9.05395 37.8423 9.70675 38.8825 10.1026 39.8159C10.1474 39.9215 10.2129 40.0751 10.2482 40.1573C10.3222 40.33 10.4812 40.3918 10.5849 40.2883C10.6796 40.1936 10.6778 40.0747 10.5823 40.1113C10.4833 40.1493 10.3324 40.0057 10.2957 39.8383C10.2793 39.7636 10.2349 39.6769 10.197 39.6454C10.159 39.614 10.128 39.5638 10.1278 39.5341C10.1272 39.3572 9.14083 37.7375 8.82295 37.3911C8.76199 37.3247 8.52763 37.0647 8.30215 36.8134C8.07667 36.562 7.78543 36.26 7.65499 36.1421C7.52455 36.0243 7.38991 35.9019 7.35583 35.8702C7.32163 35.8384 7.19167 35.7304 7.06687 35.6302C6.94219 35.5299 6.82927 35.4351 6.81607 35.4194C6.63367 35.2019 5.52919 34.5397 5.44459 34.597Z" fill="#4C6C7C"/>
</svg>
